<?xml version="1.0" encoding="utf-8" ?>
<svg baseProfile="tiny" height="500" version="1.2" width="500" xmlns="http://www.w3.org/2000/svg" xmlns:ev="http://www.w3.org/2001/xml-events" xmlns:xlink="http://www.w3.org/1999/xlink"><defs /><path d="M 183.00196078431372,308.0 L 184.0,307.0019607843137 L 184.00196078431372,307.0 L 184.00196078431372,306.0 L 185.0,305.0019607843137 L 185.00196078431372,305.0 L 185.00196078431372,304.0 L 185.00196078431372,303.0 L 186.0,302.0019607843137 L 186.00196078431372,302.0 L 186.00196078431372,301.0 L 187.0,300.0019607843137 L 187.00196078431372,300.0 L 187.00196078431372,299.0 L 187.00196078431372,298.0 L 188.0,297.0019607843137 L 188.00196078431372,297.0 L 188.00196078431372,296.0 L 188.00196078431372,295.0 L 189.0,294.0019607843137 L 189.00196078431372,294.0 L 189.00196078431372,293.0 L 190.0,292.0019607843137 L 190.00196078431372,292.0 L 190.00196078431372,291.0 L 190.00196078431372,290.0 L 191.0,289.0019607843137 L 191.00196078431372,289.0 L 191.00196078431372,288.0 L 191.00196078431372,287.0 L 192.0,286.0019607843137 L 192.00196078431372,286.0 L 192.00196078431372,285.0 L 193.0,284.0019607843137 L 193.00196078431372,284.0 L 193.00196078431372,283.0 L 193.00196078431372,282.0 L 194.0,281.0019607843137 L 194.00196078431372,281.0 L 194.00196078431372,280.0 L 195.0,279.0019607843137 L 195.00196078431372,279.0 L 195.00196078431372,278.0 L 195.00196078431372,277.0 L 196.0,276.0019607843137 L 196.00196078431372,276.0 L 196.00196078431372,275.0 L 196.00196078431372,274.0 L 197.0,273.0019607843137 L 197.00196078431372,273.0 L 197.00196078431372,272.0 L 198.0,271.0019607843137 L 198.00196078431372,271.0 L 198.00196078431372,270.0 L 198.00196078431372,269.0 L 199.0,268.0019607843137 L 199.00196078431372,268.0 L 199.00196078431372,267.0 L 199.00196078431372,266.0 L 200.0,265.0019607843137 L 200.00196078431372,265.0 L 200.00196078431372,264.0 L 201.0,263.0019607843137 L 201.00196078431372,263.0 L 201.00196078431372,262.0 L 201.00196078431372,261.0 L 202.0,260.0019607843137 L 202.00196078431372,260.0 L 202.00196078431372,259.0 L 202.00196078431372,258.0 L 203.0,257.0019607843137 L 203.00196078431372,257.0 L 203.00196078431372,256.0 L 204.0,255.00196078431372 L 204.00196078431372,255.0 L 204.00196078431372,254.0 L 204.00196078431372,253.0 L 205.0,252.00196078431372 L 205.00196078431372,252.0 L 205.00196078431372,251.0 L 205.00196078431372,250.0 L 206.0,249.00196078431372 L 206.00196078431372,249.0 L 206.00196078431372,248.0 L 206.00196078431372,247.0 L 207.0,246.00196078431372 L 207.00196078431372,246.0 L 207.00196078431372,245.0 L 208.0,244.00196078431372 L 208.00196078431372,244.0 L 208.00196078431372,243.0 L 208.00196078431372,242.0 L 209.0,241.00196078431372 L 209.00196078431372,241.0 L 209.00196078431372,240.0 L 209.00196078431372,239.0 L 210.0,238.00196078431372 L 210.00196078431372,238.0 L 210.00196078431372,237.0 L 211.0,236.00196078431372 L 211.00196078431372,236.0 L 211.00196078431372,235.0 L 212.0,234.00196078431372 L 212.99803921568628,235.0 L 212.99803921568628,236.0 L 213.0,236.00196078431372 L 213.99803921568628,237.0 L 213.99803921568628,238.0 L 214.0,238.00196078431372 L 214.99803921568628,239.0 L 214.99803921568628,240.0 L 214.99803921568628,241.0 L 215.0,241.00196078431372 L 215.99803921568628,242.0 L 215.99803921568628,243.0 L 215.99803921568628,244.0 L 216.0,244.00196078431372 L 216.99803921568628,245.0 L 216.99803921568628,246.0 L 216.99803921568628,247.0 L 217.0,247.00196078431372 L 217.99803921568628,248.0 L 217.99803921568628,249.0 L 218.0,249.00196078431372 L 218.99803921568628,250.0 L 218.99803921568628,251.0 L 218.99803921568628,252.0 L 219.0,252.00196078431372 L 219.99803921568628,253.0 L 219.99803921568628,254.0 L 219.99803921568628,255.0 L 220.0,255.00196078431372 L 220.99803921568628,256.0 L 220.99803921568628,257.0 L 221.0,257.0019607843137 L 221.99803921568628,258.0 L 221.99803921568628,259.0 L 221.99803921568628,260.0 L 222.0,260.0019607843137 L 222.99803921568628,261.0 L 222.99803921568628,262.0 L 222.99803921568628,263.0 L 223.0,263.0019607843137 L 223.99803921568628,264.0 L 223.99803921568628,265.0 L 223.99803921568628,266.0 L 224.0,266.0019607843137 L 224.99803921568628,267.0 L 224.99803921568628,268.0 L 225.0,268.0019607843137 L 225.99803921568628,269.0 L 225.99803921568628,270.0 L 225.99803921568628,271.0 L 226.0,271.0019607843137 L 226.99803921568628,272.0 L 226.99803921568628,273.0 L 226.99803921568628,274.0 L 227.0,274.0019607843137 L 228.0,274.0019607843137 L 229.0,274.0019607843137 L 230.0,274.0019607843137 L 231.0,274.0019607843137 L 232.0,274.0019607843137 L 233.0,274.0019607843137 L 234.0,274.0019607843137 L 235.0,274.0019607843137 L 236.0,274.0019607843137 L 237.0,274.0019607843137 L 238.0,274.0019607843137 L 239.0,274.0019607843137 L 240.0,274.0019607843137 L 241.0,274.0019607843137 L 242.0,274.0019607843137 L 243.0,274.0019607843137 L 244.0,274.0019607843137 L 245.0,274.0019607843137 L 246.0,274.0019607843137 L 247.0,274.0019607843137 L 248.0,274.0019607843137 L 249.0,274.0019607843137 L 250.0,274.0019607843137 L 251.0,274.0019607843137 L 252.0,274.0019607843137 L 253.0,274.0019607843137 L 254.0,274.0019607843137 L 255.0,274.0019607843137 L 256.0,274.0019607843137 L 257.0,274.0019607843137 L 258.0,274.0019607843137 L 259.0,274.0019607843137 L 260.0,274.0019607843137 L 261.0,274.0019607843137 L 262.0,274.0019607843137 L 263.0,274.0019607843137 L 264.0,274.0019607843137 L 265.0,274.0019607843137 L 265.0019607843137,274.0 L 265.0,273.9980392156863 L 264.0019607843137,273.0 L 264.0019607843137,272.0 L 264.0019607843137,271.0 L 264.0,270.9980392156863 L 263.0019607843137,270.0 L 263.0019607843137,269.0 L 263.0,268.9980392156863 L 262.0019607843137,268.0 L 262.0019607843137,267.0 L 262.0019607843137,266.0 L 262.0,265.9980392156863 L 261.0019607843137,265.0 L 261.0019607843137,264.0 L 261.0,263.9980392156863 L 260.0019607843137,263.0 L 260.0019607843137,262.0 L 260.0019607843137,261.0 L 260.0,260.9980392156863 L 259.0019607843137,260.0 L 259.0019607843137,259.0 L 259.0019607843137,258.0 L 259.0,257.9980392156863 L 258.0019607843137,257.0 L 258.0019607843137,256.0 L 258.0,255.99803921568628 L 257.0019607843137,255.0 L 257.0019607843137,254.0 L 257.0019607843137,253.0 L 257.0,252.99803921568628 L 256.0019607843137,252.0 L 256.0019607843137,251.0 L 256.0,250.99803921568628 L 255.00196078431372,250.0 L 255.00196078431372,249.0 L 255.00196078431372,248.0 L 255.0,247.99803921568628 L 254.00196078431372,247.0 L 254.00196078431372,246.0 L 254.00196078431372,245.0 L 254.0,244.99803921568628 L 253.00196078431372,244.0 L 253.00196078431372,243.0 L 253.0,242.99803921568628 L 252.00196078431372,242.0 L 252.00196078431372,241.0 L 252.00196078431372,240.0 L 252.0,239.99803921568628 L 251.00196078431372,239.0 L 251.00196078431372,238.0 L 251.00196078431372,237.0 L 251.0,236.99803921568628 L 250.00196078431372,236.0 L 250.00196078431372,235.0 L 250.0,234.99803921568628 L 249.00196078431372,234.0 L 249.00196078431372,233.0 L 249.00196078431372,232.0 L 249.0,231.99803921568628 L 248.00196078431372,231.0 L 248.00196078431372,230.0 L 248.0,229.99803921568628 L 247.00196078431372,229.0 L 247.00196078431372,228.0 L 247.00196078431372,227.0 L 247.0,226.99803921568628 L 246.00196078431372,226.0 L 246.00196078431372,225.0 L 246.00196078431372,224.0 L 246.0,223.99803921568628 L 245.00196078431372,223.0 L 245.00196078431372,222.0 L 245.0,221.99803921568628 L 244.00196078431372,221.0 L 244.00196078431372,220.0 L 244.00196078431372,219.0 L 244.0,218.99803921568628 L 243.00196078431372,218.0 L 243.00196078431372,217.0 L 243.0,216.99803921568628 L 242.00196078431372,216.0 L 242.00196078431372,215.0 L 242.00196078431372,214.0 L 242.0,213.99803921568628 L 241.00196078431372,213.0 L 241.00196078431372,212.0 L 241.00196078431372,211.0 L 241.0,210.99803921568628 L 240.00196078431372,210.0 L 240.00196078431372,209.0 L 240.0,208.99803921568628 L 239.00196078431372,208.0 L 239.00196078431372,207.0 L 239.00196078431372,206.0 L 239.0,205.99803921568628 L 238.00196078431372,205.0 L 238.00196078431372,204.0 L 238.0,203.99803921568628 L 237.00196078431372,203.0 L 237.00196078431372,202.0 L 237.00196078431372,201.0 L 237.0,200.99803921568628 L 236.00196078431372,200.0 L 236.00196078431372,199.0 L 236.00196078431372,198.0 L 236.0,197.99803921568628 L 235.00196078431372,197.0 L 235.00196078431372,196.0 L 235.0,195.99803921568628 L 234.00196078431372,195.0 L 234.00196078431372,194.0 L 234.00196078431372,193.0 L 234.0,192.99803921568628 L 233.00196078431372,192.0 L 233.00196078431372,191.0 L 233.0,190.99803921568628 L 232.00196078431372,190.0 L 232.00196078431372,189.0 L 232.00196078431372,188.0 L 232.0,187.99803921568628 L 231.00196078431372,187.0 L 231.00196078431372,186.0 L 231.00196078431372,185.0 L 231.0,184.99803921568628 L 230.00196078431372,184.0 L 230.00196078431372,183.0 L 230.0,182.99803921568628 L 229.00196078431372,182.0 L 229.00196078431372,181.0 L 229.00196078431372,180.0 L 229.0,179.99803921568628 L 228.00196078431372,179.0 L 228.00196078431372,178.0 L 228.00196078431372,177.0 L 228.0,176.99803921568628 L 227.00196078431372,176.0 L 227.00196078431372,175.0 L 227.0,174.99803921568628 L 226.00196078431372,174.0 L 226.00196078431372,173.0 L 226.0,172.99803921568628 L 225.0,172.99803921568628 L 224.0,172.99803921568628 L 223.0,172.99803921568628 L 222.0,172.99803921568628 L 221.0,172.99803921568628 L 220.0,172.99803921568628 L 219.0,172.99803921568628 L 218.0,172.99803921568628 L 217.0,172.99803921568628 L 216.0,172.99803921568628 L 215.0,172.99803921568628 L 214.0,172.99803921568628 L 213.0,172.99803921568628 L 212.0,172.99803921568628 L 211.0,172.99803921568628 L 210.0,172.99803921568628 L 209.0,172.99803921568628 L 208.0,172.99803921568628 L 207.0,172.99803921568628 L 206.0,172.99803921568628 L 205.0,172.99803921568628 L 204.0,172.99803921568628 L 203.0,172.99803921568628 L 202.0,172.99803921568628 L 201.0,172.99803921568628 L 200.0,172.99803921568628 L 199.0,172.99803921568628 L 198.0,172.99803921568628 L 197.0,172.99803921568628 L 196.99803921568628,173.0 L 196.99803921568628,174.0 L 196.99803921568628,175.0 L 196.0,175.99803921568628 L 195.99803921568628,176.0 L 195.99803921568628,177.0 L 195.0,177.99803921568628 L 194.99803921568628,178.0 L 194.99803921568628,179.0 L 194.99803921568628,180.0 L 194.0,180.99803921568628 L 193.99803921568628,181.0 L 193.99803921568628,182.0 L 193.0,182.99803921568628 L 192.99803921568628,183.0 L 192.99803921568628,184.0 L 192.99803921568628,185.0 L 192.0,185.99803921568628 L 191.99803921568628,186.0 L 191.99803921568628,187.0 L 191.99803921568628,188.0 L 191.0,188.99803921568628 L 190.99803921568628,189.0 L 190.99803921568628,190.0 L 190.0,190.99803921568628 L 189.99803921568628,191.0 L 189.99803921568628,192.0 L 189.99803921568628,193.0 L 189.0,193.99803921568628 L 188.99803921568628,194.0 L 188.99803921568628,195.0 L 188.99803921568628,196.0 L 188.0,196.99803921568628 L 187.99803921568628,197.0 L 187.99803921568628,198.0 L 187.0,198.99803921568628 L 186.99803921568628,199.0 L 186.99803921568628,200.0 L 186.99803921568628,201.0 L 186.0,201.99803921568628 L 185.99803921568628,202.0 L 185.99803921568628,203.0 L 185.0,203.99803921568628 L 184.99803921568628,204.0 L 184.99803921568628,205.0 L 184.99803921568628,206.0 L 184.0,206.99803921568628 L 183.99803921568628,207.0 L 183.99803921568628,208.0 L 183.99803921568628,209.0 L 183.0,209.99803921568628 L 182.99803921568628,210.0 L 182.99803921568628,211.0 L 182.0,211.99803921568628 L 181.99803921568628,212.0 L 181.99803921568628,213.0 L 181.99803921568628,214.0 L 181.0,214.99803921568628 L 180.99803921568628,215.0 L 180.99803921568628,216.0 L 180.0,216.99803921568628 L 179.99803921568628,217.0 L 179.99803921568628,218.0 L 179.99803921568628,219.0 L 179.0,219.99803921568628 L 178.99803921568628,220.0 L 178.99803921568628,221.0 L 178.99803921568628,222.0 L 178.0,222.99803921568628 L 177.99803921568628,223.0 L 177.99803921568628,224.0 L 177.0,224.99803921568628 L 176.99803921568628,225.0 L 176.99803921568628,226.0 L 176.99803921568628,227.0 L 176.0,227.99803921568628 L 175.99803921568628,228.0 L 175.99803921568628,229.0 L 175.0,229.99803921568628 L 174.99803921568628,230.0 L 174.99803921568628,231.0 L 174.99803921568628,232.0 L 174.0,232.99803921568628 L 173.99803921568628,233.0 L 173.99803921568628,234.0 L 173.99803921568628,235.0 L 173.0,235.99803921568628 L 172.99803921568628,236.0 L 172.99803921568628,237.0 L 172.0,237.99803921568628 L 171.99803921568628,238.0 L 171.99803921568628,239.0 L 171.99803921568628,240.0 L 171.0,240.99803921568628 L 170.99803921568628,241.0 L 170.99803921568628,242.0 L 170.99803921568628,243.0 L 170.0,243.99803921568628 L 169.99803921568628,244.0 L 169.99803921568628,245.0 L 169.0,245.99803921568628 L 168.99803921568628,246.0 L 168.99803921568628,247.0 L 168.99803921568628,248.0 L 168.0,248.99803921568628 L 167.99803921568628,249.0 L 167.99803921568628,250.0 L 167.0,250.99803921568628 L 166.99803921568628,251.0 L 166.99803921568628,252.0 L 166.99803921568628,253.0 L 166.0,253.99803921568628 L 165.99803921568628,254.0 L 165.99803921568628,255.0 L 165.99803921568628,256.0 L 165.0,256.9980392156863 L 164.99803921568628,257.0 L 164.99803921568628,258.0 L 164.0,258.9980392156863 L 163.99803921568628,259.0 L 163.99803921568628,260.0 L 163.99803921568628,261.0 L 163.0,261.9980392156863 L 162.99803921568628,262.0 L 162.99803921568628,263.0 L 162.0,263.9980392156863 L 161.99803921568628,264.0 L 161.99803921568628,265.0 L 161.99803921568628,266.0 L 161.0,266.9980392156863 L 160.99803921568628,267.0 L 160.99803921568628,268.0 L 160.99803921568628,269.0 L 160.0,269.9980392156863 L 159.99803921568628,270.0 L 159.99803921568628,271.0 L 159.0,271.9980392156863 L 158.99803921568628,272.0 L 158.99803921568628,273.0 L 158.99803921568628,274.0 L 158.0,274.9980392156863 L 157.99803921568628,275.0 L 157.99803921568628,276.0 L 157.0,276.9980392156863 L 156.0,276.9980392156863 L 155.99803921568628,277.0 L 155.0,277.9980392156863 L 154.0,277.9980392156863 L 153.0,277.9980392156863 L 152.0,277.9980392156863 L 151.0,277.9980392156863 L 150.0,277.9980392156863 L 149.0,277.9980392156863 L 148.0,277.9980392156863 L 147.0,277.9980392156863 L 146.0,277.9980392156863 L 145.0,277.9980392156863 L 144.0,277.9980392156863 L 143.0,277.9980392156863 L 142.0,277.9980392156863 L 141.0,277.9980392156863 L 140.99803921568628,278.0 L 140.0,278.9980392156863 L 139.99803921568628,279.0 L 139.99803921568628,280.0 L 139.0,280.9980392156863 L 138.99803921568628,281.0 L 138.99803921568628,282.0 L 138.99803921568628,283.0 L 138.0,283.9980392156863 L 137.99803921568628,284.0 L 137.99803921568628,285.0 L 137.99803921568628,286.0 L 137.0,286.9980392156863 L 136.99803921568628,287.0 L 136.99803921568628,288.0 L 136.0,288.9980392156863 L 135.99803921568628,289.0 L 135.99803921568628,290.0 L 135.99803921568628,291.0 L 135.0,291.9980392156863 L 134.99803921568628,292.0 L 134.99803921568628,293.0 L 134.0,293.9980392156863 L 133.99803921568628,294.0 L 133.99803921568628,295.0 L 133.99803921568628,296.0 L 133.0,296.9980392156863 L 132.99803921568628,297.0 L 132.99803921568628,298.0 L 132.99803921568628,299.0 L 132.0,299.9980392156863 L 131.99803921568628,300.0 L 131.99803921568628,301.0 L 131.0,301.9980392156863 L 130.99803921568628,302.0 L 130.99803921568628,303.0 L 130.99803921568628,304.0 L 130.0,304.9980392156863 L 129.99803921568628,305.0 L 129.99803921568628,306.0 L 129.99803921568628,307.0 L 129.99803921568628,308.0 L 130.0,308.0019607843137 L 131.0,308.0019607843137 L 132.0,308.0019607843137 L 133.0,308.0019607843137 L 134.0,308.0019607843137 L 135.0,308.0019607843137 L 136.0,308.0019607843137 L 137.0,308.0019607843137 L 138.0,308.0019607843137 L 139.0,308.0019607843137 L 140.0,308.0019607843137 L 141.0,308.0019607843137 L 142.0,308.0019607843137 L 143.0,308.0019607843137 L 144.0,308.0019607843137 L 145.0,308.0019607843137 L 146.0,308.0019607843137 L 147.0,308.0019607843137 L 148.0,308.0019607843137 L 149.0,308.0019607843137 L 150.0,308.0019607843137 L 151.0,308.0019607843137 L 152.0,308.0019607843137 L 153.0,308.0019607843137 L 154.0,308.0019607843137 L 155.0,308.0019607843137 L 156.0,308.0019607843137 L 157.0,308.0019607843137 L 158.0,308.0019607843137 L 159.0,308.0019607843137 L 160.0,308.0019607843137 L 161.0,308.0019607843137 L 162.0,308.0019607843137 L 163.0,308.0019607843137 L 164.0,308.0019607843137 L 165.0,308.0019607843137 L 166.0,308.0019607843137 L 167.0,308.0019607843137 L 168.0,308.0019607843137 L 169.0,308.0019607843137 L 170.0,308.0019607843137 L 171.0,308.0019607843137 L 172.0,308.0019607843137 L 173.0,308.0019607843137 L 174.0,308.0019607843137 L 175.0,308.0019607843137 L 176.0,308.0019607843137 L 177.0,308.0019607843137 L 178.0,308.0019607843137 L 179.0,308.0019607843137 L 180.0,308.0019607843137 L 181.0,308.0019607843137 L 182.0,308.0019607843137 L 183.0,308.0019607843137 L 183.00196078431372,308.0 Z" fill="white" stroke="black" stroke-width="2" /><path d="M 361.0019607843137,308.0 L 361.0019607843137,307.0 L 361.0019607843137,306.0 L 361.0,305.9980392156863 L 360.0019607843137,305.0 L 360.0019607843137,304.0 L 360.0019607843137,303.0 L 360.0,302.9980392156863 L 359.0019607843137,302.0 L 359.0019607843137,301.0 L 359.0,300.9980392156863 L 358.0019607843137,300.0 L 358.0019607843137,299.0 L 358.0019607843137,298.0 L 358.0,297.9980392156863 L 357.0019607843137,297.0 L 357.0019607843137,296.0 L 357.0019607843137,295.0 L 357.0,294.9980392156863 L 356.0019607843137,294.0 L 356.0019607843137,293.0 L 356.0,292.9980392156863 L 355.0019607843137,292.0 L 355.0019607843137,291.0 L 355.0019607843137,290.0 L 355.0,289.9980392156863 L 354.0019607843137,289.0 L 354.0019607843137,288.0 L 354.0019607843137,287.0 L 354.0,286.9980392156863 L 353.0019607843137,286.0 L 353.0019607843137,285.0 L 353.0,284.9980392156863 L 352.0019607843137,284.0 L 352.0019607843137,283.0 L 352.0019607843137,282.0 L 352.0,281.9980392156863 L 351.0019607843137,281.0 L 351.0019607843137,280.0 L 351.0019607843137,279.0 L 351.0019607843137,278.0 L 351.0019607843137,277.0 L 351.0019607843137,276.0 L 352.0,275.0019607843137 L 352.0019607843137,275.0 L 352.0019607843137,274.0 L 352.0019607843137,273.0 L 352.0019607843137,272.0 L 353.0,271.0019607843137 L 353.0019607843137,271.0 L 353.0019607843137,270.0 L 353.0019607843137,269.0 L 353.0019607843137,268.0 L 354.0,267.0019607843137 L 354.0019607843137,267.0 L 354.0019607843137,266.0 L 354.0019607843137,265.0 L 354.0019607843137,264.0 L 354.0019607843137,263.0 L 355.0,262.0019607843137 L 355.0019607843137,262.0 L 355.0019607843137,261.0 L 355.0019607843137,260.0 L 355.0019607843137,259.0 L 356.0,258.0019607843137 L 356.0019607843137,258.0 L 356.0019607843137,257.0 L 356.0019607843137,256.0 L 356.0019607843137,255.0 L 357.0,254.00196078431372 L 357.0019607843137,254.0 L 357.0019607843137,253.0 L 357.0019607843137,252.0 L 357.0019607843137,251.0 L 357.0019607843137,250.0 L 358.0,249.00196078431372 L 358.0019607843137,249.0 L 358.0019607843137,248.0 L 358.0019607843137,247.0 L 358.0019607843137,246.0 L 359.0,245.00196078431372 L 359.0019607843137,245.0 L 359.0019607843137,244.0 L 359.0019607843137,243.0 L 359.0019607843137,242.0 L 359.0019607843137,241.0 L 360.0,240.00196078431372 L 360.0019607843137,240.0 L 360.0019607843137,239.0 L 360.0019607843137,238.0 L 360.0019607843137,237.0 L 361.0,236.00196078431372 L 361.0019607843137,236.0 L 361.0019607843137,235.0 L 361.0019607843137,234.0 L 361.0019607843137,233.0 L 362.0,232.00196078431372 L 362.0019607843137,232.0 L 362.0019607843137,231.0 L 362.0019607843137,230.0 L 362.0019607843137,229.0 L 362.0019607843137,228.0 L 363.0,227.00196078431372 L 363.0019607843137,227.0 L 363.0019607843137,226.0 L 363.0019607843137,225.0 L 363.0019607843137,224.0 L 364.0,223.00196078431372 L 364.0019607843137,223.0 L 364.0019607843137,222.0 L 364.0019607843137,221.0 L 364.0019607843137,220.0 L 365.0,219.00196078431372 L 365.0019607843137,219.0 L 365.0019607843137,218.0 L 365.0019607843137,217.0 L 365.0019607843137,216.0 L 365.0019607843137,215.0 L 366.0,214.00196078431372 L 366.0019607843137,214.0 L 366.0019607843137,213.0 L 366.0019607843137,212.0 L 366.0019607843137,211.0 L 367.0,210.00196078431372 L 367.0019607843137,210.0 L 367.0019607843137,209.0 L 367.0019607843137,208.0 L 367.0019607843137,207.0 L 367.0019607843137,206.0 L 368.0,205.00196078431372 L 368.0019607843137,205.0 L 368.0019607843137,204.0 L 368.0019607843137,203.0 L 368.0019607843137,202.0 L 369.0,201.00196078431372 L 369.0019607843137,201.0 L 369.0019607843137,200.0 L 369.0019607843137,199.0 L 369.0019607843137,198.0 L 370.0,197.00196078431372 L 370.0019607843137,197.0 L 370.0019607843137,196.0 L 370.0019607843137,195.0 L 370.0019607843137,194.0 L 370.0019607843137,193.0 L 371.0,192.00196078431372 L 371.0019607843137,192.0 L 371.0019607843137,191.0 L 371.0019607843137,190.0 L 371.0019607843137,189.0 L 372.0,188.00196078431372 L 372.0019607843137,188.0 L 372.0019607843137,187.0 L 372.0019607843137,186.0 L 372.0019607843137,185.0 L 373.0,184.00196078431372 L 373.0019607843137,184.0 L 373.0019607843137,183.0 L 373.0019607843137,182.0 L 373.0019607843137,181.0 L 373.0019607843137,180.0 L 374.0,179.00196078431372 L 374.0019607843137,179.0 L 374.0019607843137,178.0 L 374.0019607843137,177.0 L 374.0019607843137,176.0 L 375.0,175.00196078431372 L 375.0019607843137,175.0 L 375.0019607843137,174.0 L 375.0019607843137,173.0 L 375.0,172.99803921568628 L 374.0,172.99803921568628 L 373.0,172.99803921568628 L 372.0,172.99803921568628 L 371.0,172.99803921568628 L 370.0,172.99803921568628 L 369.0,172.99803921568628 L 368.0,172.99803921568628 L 367.0,172.99803921568628 L 366.0,172.99803921568628 L 365.0,172.99803921568628 L 364.0,172.99803921568628 L 363.0,172.99803921568628 L 362.0,172.99803921568628 L 361.0,172.99803921568628 L 360.0,172.99803921568628 L 359.0,172.99803921568628 L 358.0,172.99803921568628 L 357.0,172.99803921568628 L 356.0,172.99803921568628 L 355.0,172.99803921568628 L 354.0,172.99803921568628 L 353.0,172.99803921568628 L 352.0,172.99803921568628 L 351.0,172.99803921568628 L 350.0,172.99803921568628 L 349.0,172.99803921568628 L 348.0,172.99803921568628 L 347.0,172.99803921568628 L 346.0,172.99803921568628 L 345.0,172.99803921568628 L 344.0,172.99803921568628 L 343.0,172.99803921568628 L 342.0,172.99803921568628 L 341.0,172.99803921568628 L 340.9980392156863,173.0 L 340.9980392156863,174.0 L 340.9980392156863,175.0 L 340.0,175.99803921568628 L 339.9980392156863,176.0 L 339.9980392156863,177.0 L 339.9980392156863,178.0 L 339.9980392156863,179.0 L 339.0,179.99803921568628 L 338.9980392156863,180.0 L 338.9980392156863,181.0 L 338.9980392156863,182.0 L 338.9980392156863,183.0 L 338.0,183.99803921568628 L 337.9980392156863,184.0 L 337.9980392156863,185.0 L 337.9980392156863,186.0 L 337.9980392156863,187.0 L 337.9980392156863,188.0 L 337.0,188.99803921568628 L 336.9980392156863,189.0 L 336.9980392156863,190.0 L 336.9980392156863,191.0 L 336.9980392156863,192.0 L 336.0,192.99803921568628 L 335.9980392156863,193.0 L 335.9980392156863,194.0 L 335.9980392156863,195.0 L 335.9980392156863,196.0 L 335.9980392156863,197.0 L 335.0,197.99803921568628 L 334.9980392156863,198.0 L 334.9980392156863,199.0 L 334.9980392156863,200.0 L 334.9980392156863,201.0 L 334.0,201.99803921568628 L 333.9980392156863,202.0 L 333.9980392156863,203.0 L 333.9980392156863,204.0 L 333.9980392156863,205.0 L 333.0,205.99803921568628 L 332.9980392156863,206.0 L 332.9980392156863,207.0 L 332.9980392156863,208.0 L 332.9980392156863,209.0 L 332.9980392156863,210.0 L 332.0,210.99803921568628 L 331.9980392156863,211.0 L 331.9980392156863,212.0 L 331.9980392156863,213.0 L 331.9980392156863,214.0 L 331.0,214.99803921568628 L 330.9980392156863,215.0 L 330.9980392156863,216.0 L 330.9980392156863,217.0 L 330.9980392156863,218.0 L 330.9980392156863,219.0 L 330.0,219.99803921568628 L 329.9980392156863,220.0 L 329.9980392156863,221.0 L 329.9980392156863,222.0 L 329.9980392156863,223.0 L 329.0,223.99803921568628 L 328.9980392156863,224.0 L 328.9980392156863,225.0 L 328.9980392156863,226.0 L 328.9980392156863,227.0 L 328.0,227.99803921568628 L 327.9980392156863,228.0 L 327.9980392156863,229.0 L 327.9980392156863,230.0 L 327.9980392156863,231.0 L 327.9980392156863,232.0 L 327.0,232.99803921568628 L 326.9980392156863,233.0 L 326.9980392156863,234.0 L 326.9980392156863,235.0 L 326.9980392156863,236.0 L 326.0,236.99803921568628 L 325.9980392156863,237.0 L 325.9980392156863,238.0 L 325.9980392156863,239.0 L 325.9980392156863,240.0 L 325.0,240.99803921568628 L 324.9980392156863,241.0 L 324.9980392156863,242.0 L 324.9980392156863,243.0 L 324.9980392156863,244.0 L 324.9980392156863,245.0 L 324.0,245.99803921568628 L 323.9980392156863,246.0 L 323.9980392156863,247.0 L 323.9980392156863,248.0 L 323.0,248.99803921568628 L 322.0019607843137,248.0 L 322.0019607843137,247.0 L 322.0,246.99803921568628 L 321.0019607843137,246.0 L 321.0019607843137,245.0 L 321.0019607843137,244.0 L 321.0,243.99803921568628 L 320.0019607843137,243.0 L 320.0019607843137,242.0 L 320.0,241.99803921568628 L 319.0019607843137,241.0 L 319.0019607843137,240.0 L 319.0019607843137,239.0 L 319.0,238.99803921568628 L 318.0019607843137,238.0 L 318.0019607843137,237.0 L 318.0,236.99803921568628 L 317.0019607843137,236.0 L 317.0019607843137,235.0 L 317.0019607843137,234.0 L 317.0,233.99803921568628 L 316.0019607843137,233.0 L 316.0019607843137,232.0 L 316.0019607843137,231.0 L 316.0,230.99803921568628 L 315.0019607843137,230.0 L 315.0019607843137,229.0 L 315.0,228.99803921568628 L 314.0019607843137,228.0 L 314.0019607843137,227.0 L 314.0019607843137,226.0 L 314.0,225.99803921568628 L 313.0019607843137,225.0 L 313.0019607843137,224.0 L 313.0,223.99803921568628 L 312.0019607843137,223.0 L 312.0019607843137,222.0 L 312.0019607843137,221.0 L 312.0,220.99803921568628 L 311.0019607843137,220.0 L 311.0019607843137,219.0 L 311.0019607843137,218.0 L 311.0,217.99803921568628 L 310.0019607843137,217.0 L 310.0019607843137,216.0 L 310.0,215.99803921568628 L 309.0019607843137,215.0 L 309.0019607843137,214.0 L 309.0019607843137,213.0 L 309.0,212.99803921568628 L 308.0019607843137,212.0 L 308.0019607843137,211.0 L 308.0019607843137,210.0 L 308.0,209.99803921568628 L 307.0019607843137,209.0 L 307.0019607843137,208.0 L 307.0,207.99803921568628 L 306.0019607843137,207.0 L 306.0019607843137,206.0 L 306.0019607843137,205.0 L 306.0,204.99803921568628 L 305.0019607843137,204.0 L 305.0019607843137,203.0 L 305.0,202.99803921568628 L 304.0019607843137,202.0 L 304.0019607843137,201.0 L 304.0019607843137,200.0 L 304.0,199.99803921568628 L 303.0019607843137,199.0 L 303.0019607843137,198.0 L 303.0019607843137,197.0 L 303.0,196.99803921568628 L 302.0019607843137,196.0 L 302.0019607843137,195.0 L 302.0,194.99803921568628 L 301.0019607843137,194.0 L 301.0019607843137,193.0 L 301.0019607843137,192.0 L 301.0,191.99803921568628 L 300.0019607843137,191.0 L 300.0019607843137,190.0 L 300.0,189.99803921568628 L 299.0019607843137,189.0 L 299.0019607843137,188.0 L 299.0019607843137,187.0 L 299.0,186.99803921568628 L 298.0019607843137,186.0 L 298.0019607843137,185.0 L 298.0019607843137,184.0 L 298.0,183.99803921568628 L 297.0019607843137,183.0 L 297.0019607843137,182.0 L 297.0,181.99803921568628 L 296.0019607843137,181.0 L 296.0019607843137,180.0 L 296.0019607843137,179.0 L 296.0,178.99803921568628 L 295.0019607843137,178.0 L 295.0019607843137,177.0 L 295.0,176.99803921568628 L 294.0019607843137,176.0 L 294.0019607843137,175.0 L 294.0019607843137,174.0 L 294.0,173.99803921568628 L 293.0019607843137,173.0 L 293.0,172.99803921568628 L 292.0,172.99803921568628 L 291.0,172.99803921568628 L 290.0,172.99803921568628 L 289.0,172.99803921568628 L 288.0,172.99803921568628 L 287.0,172.99803921568628 L 286.0,172.99803921568628 L 285.0,172.99803921568628 L 284.0,172.99803921568628 L 283.0,172.99803921568628 L 282.0,172.99803921568628 L 281.0,172.99803921568628 L 280.0,172.99803921568628 L 279.0,172.99803921568628 L 278.0,172.99803921568628 L 277.0,172.99803921568628 L 276.0,172.99803921568628 L 275.0,172.99803921568628 L 274.0,172.99803921568628 L 273.0,172.99803921568628 L 272.0,172.99803921568628 L 271.0,172.99803921568628 L 270.0,172.99803921568628 L 269.0,172.99803921568628 L 268.0,172.99803921568628 L 267.0,172.99803921568628 L 266.0,172.99803921568628 L 265.0,172.99803921568628 L 264.0,172.99803921568628 L 263.0,172.99803921568628 L 262.0,172.99803921568628 L 261.0,172.99803921568628 L 260.0,172.99803921568628 L 259.0,172.99803921568628 L 258.0,172.99803921568628 L 257.0,172.99803921568628 L 256.0,172.99803921568628 L 255.99803921568628,173.0 L 255.99803921568628,174.0 L 255.99803921568628,175.0 L 256.0,175.00196078431372 L 256.9980392156863,176.0 L 256.9980392156863,177.0 L 256.9980392156863,178.0 L 257.0,178.00196078431372 L 257.9980392156863,179.0 L 257.9980392156863,180.0 L 258.0,180.00196078431372 L 258.9980392156863,181.0 L 258.9980392156863,182.0 L 258.9980392156863,183.0 L 259.0,183.00196078431372 L 259.9980392156863,184.0 L 259.9980392156863,185.0 L 259.9980392156863,186.0 L 260.0,186.00196078431372 L 260.9980392156863,187.0 L 260.9980392156863,188.0 L 261.0,188.00196078431372 L 261.9980392156863,189.0 L 261.9980392156863,190.0 L 261.9980392156863,191.0 L 262.0,191.00196078431372 L 262.9980392156863,192.0 L 262.9980392156863,193.0 L 263.0,193.00196078431372 L 263.9980392156863,194.0 L 263.9980392156863,195.0 L 263.9980392156863,196.0 L 264.0,196.00196078431372 L 264.9980392156863,197.0 L 264.9980392156863,198.0 L 264.9980392156863,199.0 L 265.0,199.00196078431372 L 265.9980392156863,200.0 L 265.9980392156863,201.0 L 266.0,201.00196078431372 L 266.9980392156863,202.0 L 266.9980392156863,203.0 L 266.9980392156863,204.0 L 267.0,204.00196078431372 L 267.9980392156863,205.0 L 267.9980392156863,206.0 L 268.0,206.00196078431372 L 268.9980392156863,207.0 L 268.9980392156863,208.0 L 268.9980392156863,209.0 L 269.0,209.00196078431372 L 269.9980392156863,210.0 L 269.9980392156863,211.0 L 269.9980392156863,212.0 L 270.0,212.00196078431372 L 270.9980392156863,213.0 L 270.9980392156863,214.0 L 271.0,214.00196078431372 L 271.9980392156863,215.0 L 271.9980392156863,216.0 L 271.9980392156863,217.0 L 272.0,217.00196078431372 L 272.9980392156863,218.0 L 272.9980392156863,219.0 L 272.9980392156863,220.0 L 273.0,220.00196078431372 L 273.9980392156863,221.0 L 273.9980392156863,222.0 L 274.0,222.00196078431372 L 274.9980392156863,223.0 L 274.9980392156863,224.0 L 274.9980392156863,225.0 L 275.0,225.00196078431372 L 275.9980392156863,226.0 L 275.9980392156863,227.0 L 276.0,227.00196078431372 L 276.9980392156863,228.0 L 276.9980392156863,229.0 L 276.9980392156863,230.0 L 277.0,230.00196078431372 L 277.9980392156863,231.0 L 277.9980392156863,232.0 L 277.9980392156863,233.0 L 278.0,233.00196078431372 L 278.9980392156863,234.0 L 278.9980392156863,235.0 L 279.0,235.00196078431372 L 279.9980392156863,236.0 L 279.9980392156863,237.0 L 279.9980392156863,238.0 L 280.0,238.00196078431372 L 280.9980392156863,239.0 L 280.9980392156863,240.0 L 281.0,240.00196078431372 L 281.9980392156863,241.0 L 281.9980392156863,242.0 L 281.9980392156863,243.0 L 282.0,243.00196078431372 L 282.9980392156863,244.0 L 282.9980392156863,245.0 L 282.9980392156863,246.0 L 283.0,246.00196078431372 L 283.9980392156863,247.0 L 283.9980392156863,248.0 L 284.0,248.00196078431372 L 284.9980392156863,249.0 L 284.9980392156863,250.0 L 284.9980392156863,251.0 L 285.0,251.00196078431372 L 285.9980392156863,252.0 L 285.9980392156863,253.0 L 286.0,253.00196078431372 L 286.9980392156863,254.0 L 286.9980392156863,255.0 L 286.9980392156863,256.0 L 287.0,256.0019607843137 L 287.9980392156863,257.0 L 287.9980392156863,258.0 L 287.9980392156863,259.0 L 288.0,259.0019607843137 L 288.9980392156863,260.0 L 288.9980392156863,261.0 L 289.0,261.0019607843137 L 289.9980392156863,262.0 L 289.9980392156863,263.0 L 289.9980392156863,264.0 L 290.0,264.0019607843137 L 290.9980392156863,265.0 L 290.9980392156863,266.0 L 290.9980392156863,267.0 L 291.0,267.0019607843137 L 291.9980392156863,268.0 L 291.9980392156863,269.0 L 292.0,269.0019607843137 L 292.9980392156863,270.0 L 292.9980392156863,271.0 L 292.9980392156863,272.0 L 293.0,272.0019607843137 L 293.9980392156863,273.0 L 293.9980392156863,274.0 L 294.0,274.0019607843137 L 294.9980392156863,275.0 L 294.9980392156863,276.0 L 294.9980392156863,277.0 L 295.0,277.0019607843137 L 295.9980392156863,278.0 L 295.9980392156863,279.0 L 295.9980392156863,280.0 L 296.0,280.0019607843137 L 296.9980392156863,281.0 L 296.9980392156863,282.0 L 297.0,282.0019607843137 L 297.9980392156863,283.0 L 297.9980392156863,284.0 L 297.9980392156863,285.0 L 298.0,285.0019607843137 L 298.9980392156863,286.0 L 298.9980392156863,287.0 L 299.0,287.0019607843137 L 299.9980392156863,288.0 L 299.9980392156863,289.0 L 299.9980392156863,290.0 L 300.0,290.0019607843137 L 300.9980392156863,291.0 L 300.9980392156863,292.0 L 300.9980392156863,293.0 L 301.0,293.0019607843137 L 301.9980392156863,294.0 L 301.9980392156863,295.0 L 302.0,295.0019607843137 L 302.9980392156863,296.0 L 302.9980392156863,297.0 L 302.9980392156863,298.0 L 303.0,298.0019607843137 L 303.9980392156863,299.0 L 303.9980392156863,300.0 L 304.0,300.0019607843137 L 304.9980392156863,301.0 L 304.9980392156863,302.0 L 304.9980392156863,303.0 L 305.0,303.0019607843137 L 305.9980392156863,304.0 L 305.9980392156863,305.0 L 305.9980392156863,306.0 L 306.0,306.0019607843137 L 306.9980392156863,307.0 L 306.9980392156863,308.0 L 307.0,308.0019607843137 L 308.0,308.0019607843137 L 309.0,308.0019607843137 L 310.0,308.0019607843137 L 311.0,308.0019607843137 L 312.0,308.0019607843137 L 313.0,308.0019607843137 L 314.0,308.0019607843137 L 315.0,308.0019607843137 L 316.0,308.0019607843137 L 317.0,308.0019607843137 L 318.0,308.0019607843137 L 319.0,308.0019607843137 L 320.0,308.0019607843137 L 321.0,308.0019607843137 L 322.0,308.0019607843137 L 323.0,308.0019607843137 L 324.0,308.0019607843137 L 325.0,308.0019607843137 L 326.0,308.0019607843137 L 327.0,308.0019607843137 L 328.0,308.0019607843137 L 329.0,308.0019607843137 L 330.0,308.0019607843137 L 331.0,308.0019607843137 L 332.0,308.0019607843137 L 333.0,308.0019607843137 L 334.0,308.0019607843137 L 335.0,308.0019607843137 L 336.0,308.0019607843137 L 337.0,308.0019607843137 L 338.0,308.0019607843137 L 339.0,308.0019607843137 L 340.0,308.0019607843137 L 341.0,308.0019607843137 L 342.0,308.0019607843137 L 343.0,308.0019607843137 L 344.0,308.0019607843137 L 345.0,308.0019607843137 L 346.0,308.0019607843137 L 347.0,308.0019607843137 L 348.0,308.0019607843137 L 349.0,308.0019607843137 L 350.0,308.0019607843137 L 351.0,308.0019607843137 L 352.0,308.0019607843137 L 353.0,308.0019607843137 L 354.0,308.0019607843137 L 355.0,308.0019607843137 L 356.0,308.0019607843137 L 357.0,308.0019607843137 L 358.0,308.0019607843137 L 359.0,308.0019607843137 L 360.0,308.0019607843137 L 361.0,308.0019607843137 L 361.0019607843137,308.0 Z" fill="white" stroke="black" stroke-width="2" /><path d="M 354.0019607843137,346.0 L 355.0,345.0019607843137 L 356.0,345.0019607843137 L 356.0019607843137,345.0 L 357.0,344.0019607843137 L 358.0,344.0019607843137 L 358.0019607843137,344.0 L 359.0,343.0019607843137 L 359.0019607843137,343.0 L 359.0019607843137,342.0 L 360.0,341.0019607843137 L 360.0019607843137,341.0 L 360.0019607843137,340.0 L 360.0019607843137,339.0 L 361.0,338.0019607843137 L 361.0019607843137,338.0 L 361.0019607843137,337.0 L 361.0019607843137,336.0 L 361.0,335.9980392156863 L 360.0019607843137,335.0 L 360.0019607843137,334.0 L 360.0019607843137,333.0 L 360.0,332.9980392156863 L 359.0019607843137,332.0 L 359.0,331.9980392156863 L 358.0019607843137,331.0 L 358.0,330.9980392156863 L 357.0,330.9980392156863 L 356.0019607843137,330.0 L 356.0,329.9980392156863 L 355.0,329.9980392156863 L 354.0019607843137,329.0 L 354.0,328.9980392156863 L 353.0,328.9980392156863 L 352.0,328.9980392156863 L 351.0019607843137,328.0 L 351.0,327.9980392156863 L 350.0,327.9980392156863 L 349.0,327.9980392156863 L 348.0019607843137,327.0 L 348.0,326.9980392156863 L 347.0,326.9980392156863 L 346.0019607843137,326.0 L 346.0019607843137,325.0 L 346.0,324.9980392156863 L 345.0019607843137,324.0 L 345.0019607843137,323.0 L 346.0,322.0019607843137 L 346.0019607843137,322.0 L 347.0,321.0019607843137 L 348.0,321.0019607843137 L 349.0,321.0019607843137 L 350.0,321.0019607843137 L 351.0,321.0019607843137 L 351.9980392156863,322.0 L 352.0,322.0019607843137 L 352.9980392156863,323.0 L 352.9980392156863,324.0 L 353.0,324.0019607843137 L 354.0,324.0019607843137 L 355.0,324.0019607843137 L 356.0,324.0019607843137 L 357.0,324.0019607843137 L 358.0,324.0019607843137 L 359.0,324.0019607843137 L 360.0,324.0019607843137 L 360.0019607843137,324.0 L 360.0019607843137,323.0 L 360.0019607843137,322.0 L 360.0019607843137,321.0 L 360.0,320.9980392156863 L 359.0019607843137,320.0 L 359.0,319.9980392156863 L 358.0019607843137,319.0 L 358.0019607843137,318.0 L 358.0,317.9980392156863 L 357.0,317.9980392156863 L 356.0019607843137,317.0 L 356.0,316.9980392156863 L 355.0,316.9980392156863 L 354.0019607843137,316.0 L 354.0,315.9980392156863 L 353.0,315.9980392156863 L 352.0,315.9980392156863 L 351.0019607843137,315.0 L 351.0,314.9980392156863 L 350.0,314.9980392156863 L 349.0,314.9980392156863 L 348.0,314.9980392156863 L 347.9980392156863,315.0 L 347.0,315.9980392156863 L 346.0,315.9980392156863 L 345.0,315.9980392156863 L 344.0,315.9980392156863 L 343.9980392156863,316.0 L 343.0,316.9980392156863 L 342.0,316.9980392156863 L 341.9980392156863,317.0 L 341.0,317.9980392156863 L 340.9980392156863,318.0 L 340.0,318.9980392156863 L 339.9980392156863,319.0 L 339.0,319.9980392156863 L 338.9980392156863,320.0 L 338.9980392156863,321.0 L 338.0,321.9980392156863 L 337.9980392156863,322.0 L 337.9980392156863,323.0 L 337.9980392156863,324.0 L 337.9980392156863,325.0 L 337.9980392156863,326.0 L 338.0,326.0019607843137 L 338.9980392156863,327.0 L 338.9980392156863,328.0 L 339.0,328.0019607843137 L 339.9980392156863,329.0 L 340.0,329.0019607843137 L 340.9980392156863,330.0 L 341.0,330.0019607843137 L 341.9980392156863,331.0 L 342.0,331.0019607843137 L 342.9980392156863,332.0 L 343.0,332.0019607843137 L 344.0,332.0019607843137 L 345.0,332.0019607843137 L 345.9980392156863,333.0 L 346.0,333.0019607843137 L 347.0,333.0019607843137 L 348.0,333.0019607843137 L 348.9980392156863,334.0 L 349.0,334.0019607843137 L 350.0,334.0019607843137 L 351.0,334.0019607843137 L 351.9980392156863,335.0 L 352.0,335.0019607843137 L 352.9980392156863,336.0 L 352.9980392156863,337.0 L 353.0,337.0019607843137 L 353.9980392156863,338.0 L 353.0,338.9980392156863 L 352.9980392156863,339.0 L 352.0,339.9980392156863 L 351.9980392156863,340.0 L 351.0,340.9980392156863 L 350.0,340.9980392156863 L 349.0,340.9980392156863 L 348.0,340.9980392156863 L 347.0019607843137,340.0 L 347.0,339.9980392156863 L 346.0019607843137,339.0 L 346.0,338.9980392156863 L 345.0019607843137,338.0 L 345.0,337.9980392156863 L 344.0,337.9980392156863 L 343.0,337.9980392156863 L 342.0,337.9980392156863 L 341.0,337.9980392156863 L 340.0,337.9980392156863 L 339.0,337.9980392156863 L 338.0,337.9980392156863 L 337.9980392156863,338.0 L 337.9980392156863,339.0 L 338.0,339.0019607843137 L 338.9980392156863,340.0 L 338.9980392156863,341.0 L 338.9980392156863,342.0 L 339.0,342.0019607843137 L 339.9980392156863,343.0 L 340.0,343.0019607843137 L 340.9980392156863,344.0 L 341.0,344.0019607843137 L 342.0,344.0019607843137 L 342.9980392156863,345.0 L 343.0,345.0019607843137 L 344.0,345.0019607843137 L 344.9980392156863,346.0 L 345.0,346.0019607843137 L 346.0,346.0019607843137 L 347.0,346.0019607843137 L 348.0,346.0019607843137 L 349.0,346.0019607843137 L 350.0,346.0019607843137 L 351.0,346.0019607843137 L 352.0,346.0019607843137 L 353.0,346.0019607843137 L 354.0,346.0019607843137 L 354.0019607843137,346.0 Z" fill="white" stroke="black" stroke-width="2" /><path d="M 150.00196078431372,346.0 L 150.00196078431372,345.0 L 150.00196078431372,344.0 L 150.00196078431372,343.0 L 150.00196078431372,342.0 L 150.00196078431372,341.0 L 150.00196078431372,340.0 L 150.00196078431372,339.0 L 150.00196078431372,338.0 L 150.00196078431372,337.0 L 150.00196078431372,336.0 L 150.00196078431372,335.0 L 150.00196078431372,334.0 L 150.00196078431372,333.0 L 150.00196078431372,332.0 L 150.00196078431372,331.0 L 150.00196078431372,330.0 L 150.00196078431372,329.0 L 150.00196078431372,328.0 L 150.00196078431372,327.0 L 150.00196078431372,326.0 L 150.00196078431372,325.0 L 150.00196078431372,324.0 L 150.00196078431372,323.0 L 150.00196078431372,322.0 L 150.00196078431372,321.0 L 150.00196078431372,320.0 L 150.00196078431372,319.0 L 150.00196078431372,318.0 L 150.00196078431372,317.0 L 150.00196078431372,316.0 L 150.0,315.9980392156863 L 149.0,315.9980392156863 L 148.0,315.9980392156863 L 147.0,315.9980392156863 L 146.0,315.9980392156863 L 145.0,315.9980392156863 L 144.0,315.9980392156863 L 143.0,315.9980392156863 L 142.0,315.9980392156863 L 141.0,315.9980392156863 L 140.99803921568628,316.0 L 140.99803921568628,317.0 L 140.0,317.9980392156863 L 139.99803921568628,318.0 L 139.99803921568628,319.0 L 139.99803921568628,320.0 L 139.0,320.9980392156863 L 138.99803921568628,321.0 L 138.99803921568628,322.0 L 138.0,322.9980392156863 L 137.99803921568628,323.0 L 137.99803921568628,324.0 L 137.99803921568628,325.0 L 137.0,325.9980392156863 L 136.99803921568628,326.0 L 136.99803921568628,327.0 L 136.0,327.9980392156863 L 135.99803921568628,328.0 L 135.99803921568628,329.0 L 135.99803921568628,330.0 L 135.0,330.9980392156863 L 134.99803921568628,331.0 L 134.99803921568628,332.0 L 134.0,332.9980392156863 L 133.99803921568628,333.0 L 133.99803921568628,334.0 L 133.99803921568628,335.0 L 133.0,335.9980392156863 L 132.0,335.9980392156863 L 131.00196078431372,335.0 L 131.00196078431372,334.0 L 131.0,333.9980392156863 L 130.00196078431372,333.0 L 130.00196078431372,332.0 L 130.00196078431372,331.0 L 130.0,330.9980392156863 L 129.00196078431372,330.0 L 129.00196078431372,329.0 L 129.0,328.9980392156863 L 128.00196078431372,328.0 L 128.00196078431372,327.0 L 128.00196078431372,326.0 L 128.0,325.9980392156863 L 127.00196078431372,325.0 L 127.00196078431372,324.0 L 127.0,323.9980392156863 L 126.00196078431372,323.0 L 126.00196078431372,322.0 L 126.00196078431372,321.0 L 126.0,320.9980392156863 L 125.00196078431372,320.0 L 125.00196078431372,319.0 L 125.0,318.9980392156863 L 124.00196078431372,318.0 L 124.00196078431372,317.0 L 124.00196078431372,316.0 L 124.0,315.9980392156863 L 123.0,315.9980392156863 L 122.0,315.9980392156863 L 121.0,315.9980392156863 L 120.0,315.9980392156863 L 119.0,315.9980392156863 L 118.0,315.9980392156863 L 117.0,315.9980392156863 L 116.0,315.9980392156863 L 115.0,315.9980392156863 L 114.99803921568628,316.0 L 114.99803921568628,317.0 L 114.99803921568628,318.0 L 114.99803921568628,319.0 L 114.99803921568628,320.0 L 114.99803921568628,321.0 L 114.99803921568628,322.0 L 114.99803921568628,323.0 L 114.99803921568628,324.0 L 114.99803921568628,325.0 L 114.99803921568628,326.0 L 114.99803921568628,327.0 L 114.99803921568628,328.0 L 114.99803921568628,329.0 L 114.99803921568628,330.0 L 114.99803921568628,331.0 L 114.99803921568628,332.0 L 114.99803921568628,333.0 L 114.99803921568628,334.0 L 114.99803921568628,335.0 L 114.99803921568628,336.0 L 114.99803921568628,337.0 L 114.99803921568628,338.0 L 114.99803921568628,339.0 L 114.99803921568628,340.0 L 114.99803921568628,341.0 L 114.99803921568628,342.0 L 114.99803921568628,343.0 L 114.99803921568628,344.0 L 114.99803921568628,345.0 L 114.99803921568628,346.0 L 115.0,346.0019607843137 L 116.0,346.0019607843137 L 117.0,346.0019607843137 L 118.0,346.0019607843137 L 119.0,346.0019607843137 L 120.0,346.0019607843137 L 121.0,346.0019607843137 L 122.0,346.0019607843137 L 122.00196078431372,346.0 L 122.00196078431372,345.0 L 122.00196078431372,344.0 L 122.00196078431372,343.0 L 122.00196078431372,342.0 L 122.00196078431372,341.0 L 122.00196078431372,340.0 L 122.00196078431372,339.0 L 122.00196078431372,338.0 L 122.00196078431372,337.0 L 122.00196078431372,336.0 L 122.00196078431372,335.0 L 122.00196078431372,334.0 L 122.00196078431372,333.0 L 122.00196078431372,332.0 L 122.00196078431372,331.0 L 122.00196078431372,330.0 L 123.0,329.0019607843137 L 123.99803921568628,330.0 L 123.99803921568628,331.0 L 123.99803921568628,332.0 L 124.0,332.0019607843137 L 124.99803921568628,333.0 L 124.99803921568628,334.0 L 124.99803921568628,335.0 L 125.0,335.0019607843137 L 125.99803921568628,336.0 L 125.99803921568628,337.0 L 126.0,337.0019607843137 L 126.99803921568628,338.0 L 126.99803921568628,339.0 L 126.99803921568628,340.0 L 127.0,340.0019607843137 L 127.99803921568628,341.0 L 127.99803921568628,342.0 L 127.99803921568628,343.0 L 128.0,343.0019607843137 L 128.99803921568628,344.0 L 128.99803921568628,345.0 L 129.0,345.0019607843137 L 129.99803921568628,346.0 L 130.0,346.0019607843137 L 131.0,346.0019607843137 L 132.0,346.0019607843137 L 133.0,346.0019607843137 L 134.0,346.0019607843137 L 135.0,346.0019607843137 L 135.00196078431372,346.0 L 136.0,345.0019607843137 L 136.00196078431372,345.0 L 136.00196078431372,344.0 L 136.00196078431372,343.0 L 137.0,342.0019607843137 L 137.00196078431372,342.0 L 137.00196078431372,341.0 L 137.00196078431372,340.0 L 138.0,339.0019607843137 L 138.00196078431372,339.0 L 138.00196078431372,338.0 L 139.0,337.0019607843137 L 139.00196078431372,337.0 L 139.00196078431372,336.0 L 139.00196078431372,335.0 L 140.0,334.0019607843137 L 140.00196078431372,334.0 L 140.00196078431372,333.0 L 140.00196078431372,332.0 L 141.0,331.0019607843137 L 141.00196078431372,331.0 L 141.00196078431372,330.0 L 142.0,329.0019607843137 L 142.99803921568628,330.0 L 142.99803921568628,331.0 L 142.99803921568628,332.0 L 142.99803921568628,333.0 L 142.99803921568628,334.0 L 142.99803921568628,335.0 L 142.99803921568628,336.0 L 142.99803921568628,337.0 L 142.99803921568628,338.0 L 142.99803921568628,339.0 L 142.99803921568628,340.0 L 142.99803921568628,341.0 L 142.99803921568628,342.0 L 142.99803921568628,343.0 L 142.99803921568628,344.0 L 142.99803921568628,345.0 L 142.99803921568628,346.0 L 143.0,346.0019607843137 L 144.0,346.0019607843137 L 145.0,346.0019607843137 L 146.0,346.0019607843137 L 147.0,346.0019607843137 L 148.0,346.0019607843137 L 149.0,346.0019607843137 L 150.0,346.0019607843137 L 150.00196078431372,346.0 Z" fill="white" stroke="black" stroke-width="2" /><path d="M 184.00196078431372,346.0 L 184.00196078431372,345.0 L 184.0,344.9980392156863 L 183.00196078431372,344.0 L 183.00196078431372,343.0 L 183.00196078431372,342.0 L 183.0,341.9980392156863 L 182.00196078431372,341.0 L 182.00196078431372,340.0 L 182.00196078431372,339.0 L 182.0,338.9980392156863 L 181.00196078431372,338.0 L 181.00196078431372,337.0 L 181.00196078431372,336.0 L 181.0,335.9980392156863 L 180.00196078431372,335.0 L 180.00196078431372,334.0 L 180.0,333.9980392156863 L 179.00196078431372,333.0 L 179.00196078431372,332.0 L 179.00196078431372,331.0 L 179.0,330.9980392156863 L 178.00196078431372,330.0 L 178.00196078431372,329.0 L 178.00196078431372,328.0 L 178.0,327.9980392156863 L 177.00196078431372,327.0 L 177.00196078431372,326.0 L 177.00196078431372,325.0 L 177.0,324.9980392156863 L 176.00196078431372,324.0 L 176.00196078431372,323.0 L 176.0,322.9980392156863 L 175.00196078431372,322.0 L 175.00196078431372,321.0 L 175.00196078431372,320.0 L 175.0,319.9980392156863 L 174.00196078431372,319.0 L 174.00196078431372,318.0 L 174.00196078431372,317.0 L 174.0,316.9980392156863 L 173.00196078431372,316.0 L 173.0,315.9980392156863 L 172.0,315.9980392156863 L 171.0,315.9980392156863 L 170.0,315.9980392156863 L 169.0,315.9980392156863 L 168.0,315.9980392156863 L 167.0,315.9980392156863 L 166.0,315.9980392156863 L 165.0,315.9980392156863 L 164.99803921568628,316.0 L 164.99803921568628,317.0 L 164.0,317.9980392156863 L 163.99803921568628,318.0 L 163.99803921568628,319.0 L 163.0,319.9980392156863 L 162.99803921568628,320.0 L 162.99803921568628,321.0 L 162.99803921568628,322.0 L 162.0,322.9980392156863 L 161.99803921568628,323.0 L 161.99803921568628,324.0 L 161.99803921568628,325.0 L 161.0,325.9980392156863 L 160.99803921568628,326.0 L 160.99803921568628,327.0 L 160.99803921568628,328.0 L 160.0,328.9980392156863 L 159.99803921568628,329.0 L 159.99803921568628,330.0 L 159.99803921568628,331.0 L 159.0,331.9980392156863 L 158.99803921568628,332.0 L 158.99803921568628,333.0 L 158.0,333.9980392156863 L 157.99803921568628,334.0 L 157.99803921568628,335.0 L 157.99803921568628,336.0 L 157.0,336.9980392156863 L 156.99803921568628,337.0 L 156.99803921568628,338.0 L 156.99803921568628,339.0 L 156.0,339.9980392156863 L 155.99803921568628,340.0 L 155.99803921568628,341.0 L 155.99803921568628,342.0 L 155.0,342.9980392156863 L 154.99803921568628,343.0 L 154.99803921568628,344.0 L 154.0,344.9980392156863 L 153.99803921568628,345.0 L 153.99803921568628,346.0 L 154.0,346.0019607843137 L 155.0,346.0019607843137 L 156.0,346.0019607843137 L 157.0,346.0019607843137 L 158.0,346.0019607843137 L 159.0,346.0019607843137 L 160.0,346.0019607843137 L 161.0,346.0019607843137 L 161.00196078431372,346.0 L 161.00196078431372,345.0 L 162.0,344.0019607843137 L 162.00196078431372,344.0 L 162.00196078431372,343.0 L 162.00196078431372,342.0 L 163.0,341.0019607843137 L 164.0,341.0019607843137 L 165.0,341.0019607843137 L 166.0,341.0019607843137 L 167.0,341.0019607843137 L 168.0,341.0019607843137 L 169.0,341.0019607843137 L 170.0,341.0019607843137 L 171.0,341.0019607843137 L 172.0,341.0019607843137 L 173.0,341.0019607843137 L 174.0,341.0019607843137 L 175.0,341.0019607843137 L 175.99803921568628,342.0 L 175.99803921568628,343.0 L 175.99803921568628,344.0 L 176.0,344.0019607843137 L 176.99803921568628,345.0 L 176.99803921568628,346.0 L 177.0,346.0019607843137 L 178.0,346.0019607843137 L 179.0,346.0019607843137 L 180.0,346.0019607843137 L 181.0,346.0019607843137 L 182.0,346.0019607843137 L 183.0,346.0019607843137 L 184.0,346.0019607843137 L 184.00196078431372,346.0 Z" fill="white" stroke="black" stroke-width="2" /><path d="M 205.00196078431372,346.0 L 205.00196078431372,345.0 L 205.00196078431372,344.0 L 205.00196078431372,343.0 L 205.00196078431372,342.0 L 205.00196078431372,341.0 L 205.0,340.9980392156863 L 204.0,340.9980392156863 L 203.0,340.9980392156863 L 202.0,340.9980392156863 L 201.0,340.9980392156863 L 200.0,340.9980392156863 L 199.0,340.9980392156863 L 198.0,340.9980392156863 L 197.0,340.9980392156863 L 196.0,340.9980392156863 L 195.00196078431372,340.0 L 195.00196078431372,339.0 L 195.00196078431372,338.0 L 195.00196078431372,337.0 L 195.00196078431372,336.0 L 195.00196078431372,335.0 L 195.00196078431372,334.0 L 195.00196078431372,333.0 L 195.00196078431372,332.0 L 195.00196078431372,331.0 L 195.00196078431372,330.0 L 195.00196078431372,329.0 L 195.00196078431372,328.0 L 195.00196078431372,327.0 L 195.00196078431372,326.0 L 195.00196078431372,325.0 L 195.00196078431372,324.0 L 195.00196078431372,323.0 L 195.00196078431372,322.0 L 195.00196078431372,321.0 L 195.00196078431372,320.0 L 195.00196078431372,319.0 L 195.00196078431372,318.0 L 195.00196078431372,317.0 L 195.00196078431372,316.0 L 195.0,315.9980392156863 L 194.0,315.9980392156863 L 193.0,315.9980392156863 L 192.0,315.9980392156863 L 191.0,315.9980392156863 L 190.0,315.9980392156863 L 189.0,315.9980392156863 L 188.0,315.9980392156863 L 187.99803921568628,316.0 L 187.99803921568628,317.0 L 187.99803921568628,318.0 L 187.99803921568628,319.0 L 187.99803921568628,320.0 L 187.99803921568628,321.0 L 187.99803921568628,322.0 L 187.99803921568628,323.0 L 187.99803921568628,324.0 L 187.99803921568628,325.0 L 187.99803921568628,326.0 L 187.99803921568628,327.0 L 187.99803921568628,328.0 L 187.99803921568628,329.0 L 187.99803921568628,330.0 L 187.99803921568628,331.0 L 187.99803921568628,332.0 L 187.99803921568628,333.0 L 187.99803921568628,334.0 L 187.99803921568628,335.0 L 187.99803921568628,336.0 L 187.99803921568628,337.0 L 187.99803921568628,338.0 L 187.99803921568628,339.0 L 187.99803921568628,340.0 L 187.99803921568628,341.0 L 187.99803921568628,342.0 L 187.99803921568628,343.0 L 187.99803921568628,344.0 L 187.99803921568628,345.0 L 187.99803921568628,346.0 L 188.0,346.0019607843137 L 189.0,346.0019607843137 L 190.0,346.0019607843137 L 191.0,346.0019607843137 L 192.0,346.0019607843137 L 193.0,346.0019607843137 L 194.0,346.0019607843137 L 195.0,346.0019607843137 L 196.0,346.0019607843137 L 197.0,346.0019607843137 L 198.0,346.0019607843137 L 199.0,346.0019607843137 L 200.0,346.0019607843137 L 201.0,346.0019607843137 L 202.0,346.0019607843137 L 203.0,346.0019607843137 L 204.0,346.0019607843137 L 205.0,346.0019607843137 L 205.00196078431372,346.0 Z" fill="white" stroke="black" stroke-width="2" /><path d="M 216.00196078431372,346.0 L 216.00196078431372,345.0 L 216.00196078431372,344.0 L 216.00196078431372,343.0 L 216.00196078431372,342.0 L 216.00196078431372,341.0 L 216.00196078431372,340.0 L 216.00196078431372,339.0 L 216.00196078431372,338.0 L 216.00196078431372,337.0 L 216.00196078431372,336.0 L 216.00196078431372,335.0 L 216.00196078431372,334.0 L 216.00196078431372,333.0 L 216.00196078431372,332.0 L 216.00196078431372,331.0 L 216.00196078431372,330.0 L 216.00196078431372,329.0 L 216.00196078431372,328.0 L 216.00196078431372,327.0 L 216.00196078431372,326.0 L 216.00196078431372,325.0 L 216.00196078431372,324.0 L 216.00196078431372,323.0 L 216.00196078431372,322.0 L 216.00196078431372,321.0 L 216.00196078431372,320.0 L 216.00196078431372,319.0 L 216.00196078431372,318.0 L 216.00196078431372,317.0 L 216.00196078431372,316.0 L 216.0,315.9980392156863 L 215.0,315.9980392156863 L 214.0,315.9980392156863 L 213.0,315.9980392156863 L 212.0,315.9980392156863 L 211.0,315.9980392156863 L 210.0,315.9980392156863 L 209.99803921568628,316.0 L 209.99803921568628,317.0 L 209.99803921568628,318.0 L 209.99803921568628,319.0 L 209.99803921568628,320.0 L 209.99803921568628,321.0 L 209.99803921568628,322.0 L 209.99803921568628,323.0 L 209.99803921568628,324.0 L 209.99803921568628,325.0 L 209.99803921568628,326.0 L 209.99803921568628,327.0 L 209.99803921568628,328.0 L 209.99803921568628,329.0 L 209.99803921568628,330.0 L 209.99803921568628,331.0 L 209.99803921568628,332.0 L 209.99803921568628,333.0 L 209.99803921568628,334.0 L 209.99803921568628,335.0 L 209.99803921568628,336.0 L 209.99803921568628,337.0 L 209.99803921568628,338.0 L 209.99803921568628,339.0 L 209.99803921568628,340.0 L 209.99803921568628,341.0 L 209.99803921568628,342.0 L 209.99803921568628,343.0 L 209.99803921568628,344.0 L 209.99803921568628,345.0 L 209.99803921568628,346.0 L 210.0,346.0019607843137 L 211.0,346.0019607843137 L 212.0,346.0019607843137 L 213.0,346.0019607843137 L 214.0,346.0019607843137 L 215.0,346.0019607843137 L 216.0,346.0019607843137 L 216.00196078431372,346.0 Z" fill="white" stroke="black" stroke-width="2" /><path d="M 249.00196078431372,346.0 L 249.0,345.9980392156863 L 248.00196078431372,345.0 L 248.0,344.9980392156863 L 247.00196078431372,344.0 L 247.0,343.9980392156863 L 246.00196078431372,343.0 L 246.00196078431372,342.0 L 246.0,341.9980392156863 L 245.00196078431372,341.0 L 245.0,340.9980392156863 L 244.00196078431372,340.0 L 244.0,339.9980392156863 L 243.00196078431372,339.0 L 243.0,338.9980392156863 L 242.00196078431372,338.0 L 242.00196078431372,337.0 L 242.0,336.9980392156863 L 241.00196078431372,336.0 L 241.0,335.9980392156863 L 240.00196078431372,335.0 L 240.0,334.9980392156863 L 239.00196078431372,334.0 L 239.0,333.9980392156863 L 238.00196078431372,333.0 L 238.00196078431372,332.0 L 238.0,331.9980392156863 L 237.00196078431372,331.0 L 237.00196078431372,330.0 L 238.0,329.0019607843137 L 238.00196078431372,329.0 L 239.0,328.0019607843137 L 239.00196078431372,328.0 L 239.00196078431372,327.0 L 240.0,326.0019607843137 L 240.00196078431372,326.0 L 241.0,325.0019607843137 L 241.00196078431372,325.0 L 242.0,324.0019607843137 L 242.00196078431372,324.0 L 243.0,323.0019607843137 L 243.00196078431372,323.0 L 243.00196078431372,322.0 L 244.0,321.0019607843137 L 244.00196078431372,321.0 L 245.0,320.0019607843137 L 245.00196078431372,320.0 L 246.0,319.0019607843137 L 246.00196078431372,319.0 L 247.0,318.0019607843137 L 247.00196078431372,318.0 L 247.00196078431372,317.0 L 248.0,316.0019607843137 L 248.00196078431372,316.0 L 248.0,315.9980392156863 L 247.0,315.9980392156863 L 246.0,315.9980392156863 L 245.0,315.9980392156863 L 244.0,315.9980392156863 L 243.0,315.9980392156863 L 242.0,315.9980392156863 L 241.0,315.9980392156863 L 240.0,315.9980392156863 L 239.99803921568628,316.0 L 239.0,316.9980392156863 L 238.99803921568628,317.0 L 238.99803921568628,318.0 L 238.0,318.9980392156863 L 237.99803921568628,319.0 L 237.0,319.9980392156863 L 236.99803921568628,320.0 L 236.0,320.9980392156863 L 235.99803921568628,321.0 L 235.99803921568628,322.0 L 235.0,322.9980392156863 L 234.99803921568628,323.0 L 234.0,323.9980392156863 L 233.99803921568628,324.0 L 233.0,324.9980392156863 L 232.99803921568628,325.0 L 232.99803921568628,326.0 L 232.0,326.9980392156863 L 231.99803921568628,327.0 L 231.0,327.9980392156863 L 230.99803921568628,328.0 L 230.0,328.9980392156863 L 229.00196078431372,328.0 L 229.00196078431372,327.0 L 229.00196078431372,326.0 L 229.00196078431372,325.0 L 229.00196078431372,324.0 L 229.00196078431372,323.0 L 229.00196078431372,322.0 L 229.00196078431372,321.0 L 229.00196078431372,320.0 L 229.00196078431372,319.0 L 229.00196078431372,318.0 L 229.00196078431372,317.0 L 229.00196078431372,316.0 L 229.0,315.9980392156863 L 228.0,315.9980392156863 L 227.0,315.9980392156863 L 226.0,315.9980392156863 L 225.0,315.9980392156863 L 224.0,315.9980392156863 L 223.0,315.9980392156863 L 222.99803921568628,316.0 L 222.99803921568628,317.0 L 222.99803921568628,318.0 L 222.99803921568628,319.0 L 222.99803921568628,320.0 L 222.99803921568628,321.0 L 222.99803921568628,322.0 L 222.99803921568628,323.0 L 222.99803921568628,324.0 L 222.99803921568628,325.0 L 222.99803921568628,326.0 L 222.99803921568628,327.0 L 222.99803921568628,328.0 L 222.99803921568628,329.0 L 222.99803921568628,330.0 L 222.99803921568628,331.0 L 222.99803921568628,332.0 L 222.99803921568628,333.0 L 222.99803921568628,334.0 L 222.99803921568628,335.0 L 222.99803921568628,336.0 L 222.99803921568628,337.0 L 222.99803921568628,338.0 L 222.99803921568628,339.0 L 222.99803921568628,340.0 L 222.99803921568628,341.0 L 222.99803921568628,342.0 L 222.99803921568628,343.0 L 222.99803921568628,344.0 L 222.99803921568628,345.0 L 222.99803921568628,346.0 L 223.0,346.0019607843137 L 224.0,346.0019607843137 L 225.0,346.0019607843137 L 226.0,346.0019607843137 L 227.0,346.0019607843137 L 228.0,346.0019607843137 L 229.0,346.0019607843137 L 229.00196078431372,346.0 L 229.00196078431372,345.0 L 229.00196078431372,344.0 L 229.00196078431372,343.0 L 229.00196078431372,342.0 L 229.00196078431372,341.0 L 229.00196078431372,340.0 L 229.00196078431372,339.0 L 229.00196078431372,338.0 L 229.00196078431372,337.0 L 229.00196078431372,336.0 L 229.00196078431372,335.0 L 229.00196078431372,334.0 L 230.0,333.0019607843137 L 230.99803921568628,334.0 L 231.0,334.0019607843137 L 231.99803921568628,335.0 L 232.0,335.0019607843137 L 232.99803921568628,336.0 L 233.0,336.0019607843137 L 233.99803921568628,337.0 L 233.99803921568628,338.0 L 234.0,338.0019607843137 L 234.99803921568628,339.0 L 235.0,339.0019607843137 L 235.99803921568628,340.0 L 236.0,340.0019607843137 L 236.99803921568628,341.0 L 236.99803921568628,342.0 L 237.0,342.0019607843137 L 237.99803921568628,343.0 L 238.0,343.0019607843137 L 238.99803921568628,344.0 L 239.0,344.0019607843137 L 239.99803921568628,345.0 L 239.99803921568628,346.0 L 240.0,346.0019607843137 L 241.0,346.0019607843137 L 242.0,346.0019607843137 L 243.0,346.0019607843137 L 244.0,346.0019607843137 L 245.0,346.0019607843137 L 246.0,346.0019607843137 L 247.0,346.0019607843137 L 248.0,346.0019607843137 L 249.0,346.0019607843137 L 249.00196078431372,346.0 Z" fill="white" stroke="black" stroke-width="2" /><path d="M 271.0019607843137,346.0 L 272.0,345.0019607843137 L 272.0019607843137,345.0 L 272.0019607843137,344.0 L 272.0019607843137,343.0 L 273.0,342.0019607843137 L 273.0019607843137,342.0 L 273.0019607843137,341.0 L 273.0019607843137,340.0 L 274.0,339.0019607843137 L 274.0019607843137,339.0 L 274.0019607843137,338.0 L 274.0019607843137,337.0 L 275.0,336.0019607843137 L 275.0019607843137,336.0 L 275.0019607843137,335.0 L 275.0019607843137,334.0 L 276.0,333.0019607843137 L 276.0019607843137,333.0 L 276.0019607843137,332.0 L 276.0019607843137,331.0 L 277.0,330.0019607843137 L 277.0019607843137,330.0 L 277.0019607843137,329.0 L 278.0,328.0019607843137 L 278.0019607843137,328.0 L 278.0019607843137,327.0 L 278.0019607843137,326.0 L 279.0,325.0019607843137 L 279.0019607843137,325.0 L 279.0019607843137,324.0 L 279.0019607843137,323.0 L 280.0,322.0019607843137 L 280.0019607843137,322.0 L 280.0019607843137,321.0 L 280.0019607843137,320.0 L 281.0,319.0019607843137 L 281.0019607843137,319.0 L 281.0019607843137,318.0 L 281.0019607843137,317.0 L 282.0,316.0019607843137 L 282.0019607843137,316.0 L 282.0,315.9980392156863 L 281.0,315.9980392156863 L 280.0,315.9980392156863 L 279.0,315.9980392156863 L 278.0,315.9980392156863 L 277.0,315.9980392156863 L 276.0,315.9980392156863 L 275.0,315.9980392156863 L 274.9980392156863,316.0 L 274.0,316.9980392156863 L 273.9980392156863,317.0 L 273.9980392156863,318.0 L 273.9980392156863,319.0 L 273.0,319.9980392156863 L 272.9980392156863,320.0 L 272.9980392156863,321.0 L 272.9980392156863,322.0 L 272.0,322.9980392156863 L 271.9980392156863,323.0 L 271.9980392156863,324.0 L 271.9980392156863,325.0 L 271.0,325.9980392156863 L 270.9980392156863,326.0 L 270.9980392156863,327.0 L 270.9980392156863,328.0 L 270.0,328.9980392156863 L 269.9980392156863,329.0 L 269.9980392156863,330.0 L 269.9980392156863,331.0 L 269.0,331.9980392156863 L 268.9980392156863,332.0 L 268.9980392156863,333.0 L 268.9980392156863,334.0 L 268.0,334.9980392156863 L 267.9980392156863,335.0 L 267.9980392156863,336.0 L 267.9980392156863,337.0 L 267.0,337.9980392156863 L 266.0019607843137,337.0 L 266.0,336.9980392156863 L 265.0019607843137,336.0 L 265.0019607843137,335.0 L 265.0019607843137,334.0 L 265.0,333.9980392156863 L 264.0019607843137,333.0 L 264.0019607843137,332.0 L 264.0019607843137,331.0 L 264.0,330.9980392156863 L 263.0019607843137,330.0 L 263.0019607843137,329.0 L 263.0019607843137,328.0 L 263.0,327.9980392156863 L 262.0019607843137,327.0 L 262.0019607843137,326.0 L 262.0019607843137,325.0 L 262.0,324.9980392156863 L 261.0019607843137,324.0 L 261.0019607843137,323.0 L 261.0019607843137,322.0 L 261.0,321.9980392156863 L 260.0019607843137,321.0 L 260.0019607843137,320.0 L 260.0019607843137,319.0 L 260.0,318.9980392156863 L 259.0019607843137,318.0 L 259.0019607843137,317.0 L 259.0019607843137,316.0 L 259.0,315.9980392156863 L 258.0,315.9980392156863 L 257.0,315.9980392156863 L 256.0,315.9980392156863 L 255.0,315.9980392156863 L 254.0,315.9980392156863 L 253.0,315.9980392156863 L 252.0,315.9980392156863 L 251.99803921568628,316.0 L 251.99803921568628,317.0 L 251.99803921568628,318.0 L 252.0,318.0019607843137 L 252.99803921568628,319.0 L 252.99803921568628,320.0 L 252.99803921568628,321.0 L 253.0,321.0019607843137 L 253.99803921568628,322.0 L 253.99803921568628,323.0 L 253.99803921568628,324.0 L 254.0,324.0019607843137 L 254.99803921568628,325.0 L 254.99803921568628,326.0 L 254.99803921568628,327.0 L 255.0,327.0019607843137 L 255.99803921568628,328.0 L 255.99803921568628,329.0 L 256.0,329.0019607843137 L 256.9980392156863,330.0 L 256.9980392156863,331.0 L 256.9980392156863,332.0 L 257.0,332.0019607843137 L 257.9980392156863,333.0 L 257.9980392156863,334.0 L 257.9980392156863,335.0 L 258.0,335.0019607843137 L 258.9980392156863,336.0 L 258.9980392156863,337.0 L 258.9980392156863,338.0 L 259.0,338.0019607843137 L 259.9980392156863,339.0 L 259.9980392156863,340.0 L 259.9980392156863,341.0 L 260.0,341.0019607843137 L 260.9980392156863,342.0 L 260.9980392156863,343.0 L 260.9980392156863,344.0 L 261.0,344.0019607843137 L 261.9980392156863,345.0 L 261.9980392156863,346.0 L 262.0,346.0019607843137 L 263.0,346.0019607843137 L 264.0,346.0019607843137 L 265.0,346.0019607843137 L 266.0,346.0019607843137 L 267.0,346.0019607843137 L 268.0,346.0019607843137 L 269.0,346.0019607843137 L 270.0,346.0019607843137 L 271.0,346.0019607843137 L 271.0019607843137,346.0 Z" fill="white" stroke="black" stroke-width="2" /><path d="M 304.0019607843137,346.0 L 304.0019607843137,345.0 L 304.0019607843137,344.0 L 304.0019607843137,343.0 L 304.0019607843137,342.0 L 304.0019607843137,341.0 L 304.0,340.9980392156863 L 303.0,340.9980392156863 L 302.0,340.9980392156863 L 301.0,340.9980392156863 L 300.0,340.9980392156863 L 299.0,340.9980392156863 L 298.0,340.9980392156863 L 297.0,340.9980392156863 L 296.0,340.9980392156863 L 295.0,340.9980392156863 L 294.0,340.9980392156863 L 293.0019607843137,340.0 L 293.0019607843137,339.0 L 293.0019607843137,338.0 L 293.0019607843137,337.0 L 293.0019607843137,336.0 L 293.0019607843137,335.0 L 293.0019607843137,334.0 L 294.0,333.0019607843137 L 295.0,333.0019607843137 L 296.0,333.0019607843137 L 297.0,333.0019607843137 L 298.0,333.0019607843137 L 299.0,333.0019607843137 L 300.0,333.0019607843137 L 301.0,333.0019607843137 L 302.0,333.0019607843137 L 303.0,333.0019607843137 L 303.0019607843137,333.0 L 303.0019607843137,332.0 L 303.0019607843137,331.0 L 303.0019607843137,330.0 L 303.0019607843137,329.0 L 303.0019607843137,328.0 L 303.0,327.9980392156863 L 302.0,327.9980392156863 L 301.0,327.9980392156863 L 300.0,327.9980392156863 L 299.0,327.9980392156863 L 298.0,327.9980392156863 L 297.0,327.9980392156863 L 296.0,327.9980392156863 L 295.0,327.9980392156863 L 294.0,327.9980392156863 L 293.0019607843137,327.0 L 293.0019607843137,326.0 L 293.0019607843137,325.0 L 293.0019607843137,324.0 L 293.0019607843137,323.0 L 293.0019607843137,322.0 L 294.0,321.0019607843137 L 295.0,321.0019607843137 L 296.0,321.0019607843137 L 297.0,321.0019607843137 L 298.0,321.0019607843137 L 299.0,321.0019607843137 L 300.0,321.0019607843137 L 301.0,321.0019607843137 L 302.0,321.0019607843137 L 303.0,321.0019607843137 L 304.0,321.0019607843137 L 304.0019607843137,321.0 L 304.0019607843137,320.0 L 304.0019607843137,319.0 L 304.0019607843137,318.0 L 304.0019607843137,317.0 L 304.0019607843137,316.0 L 304.0,315.9980392156863 L 303.0,315.9980392156863 L 302.0,315.9980392156863 L 301.0,315.9980392156863 L 300.0,315.9980392156863 L 299.0,315.9980392156863 L 298.0,315.9980392156863 L 297.0,315.9980392156863 L 296.0,315.9980392156863 L 295.0,315.9980392156863 L 294.0,315.9980392156863 L 293.0,315.9980392156863 L 292.0,315.9980392156863 L 291.0,315.9980392156863 L 290.0,315.9980392156863 L 289.0,315.9980392156863 L 288.0,315.9980392156863 L 287.0,315.9980392156863 L 286.0,315.9980392156863 L 285.9980392156863,316.0 L 285.9980392156863,317.0 L 285.9980392156863,318.0 L 285.9980392156863,319.0 L 285.9980392156863,320.0 L 285.9980392156863,321.0 L 285.9980392156863,322.0 L 285.9980392156863,323.0 L 285.9980392156863,324.0 L 285.9980392156863,325.0 L 285.9980392156863,326.0 L 285.9980392156863,327.0 L 285.9980392156863,328.0 L 285.9980392156863,329.0 L 285.9980392156863,330.0 L 285.9980392156863,331.0 L 285.9980392156863,332.0 L 285.9980392156863,333.0 L 285.9980392156863,334.0 L 285.9980392156863,335.0 L 285.9980392156863,336.0 L 285.9980392156863,337.0 L 285.9980392156863,338.0 L 285.9980392156863,339.0 L 285.9980392156863,340.0 L 285.9980392156863,341.0 L 285.9980392156863,342.0 L 285.9980392156863,343.0 L 285.9980392156863,344.0 L 285.9980392156863,345.0 L 285.9980392156863,346.0 L 286.0,346.0019607843137 L 287.0,346.0019607843137 L 288.0,346.0019607843137 L 289.0,346.0019607843137 L 290.0,346.0019607843137 L 291.0,346.0019607843137 L 292.0,346.0019607843137 L 293.0,346.0019607843137 L 294.0,346.0019607843137 L 295.0,346.0019607843137 L 296.0,346.0019607843137 L 297.0,346.0019607843137 L 298.0,346.0019607843137 L 299.0,346.0019607843137 L 300.0,346.0019607843137 L 301.0,346.0019607843137 L 302.0,346.0019607843137 L 303.0,346.0019607843137 L 304.0,346.0019607843137 L 304.0019607843137,346.0 Z" fill="white" stroke="black" stroke-width="2" /><path d="M 333.0019607843137,346.0 L 333.0019607843137,345.0 L 333.0,344.9980392156863 L 332.0019607843137,344.0 L 332.0019607843137,343.0 L 332.0,342.9980392156863 L 331.0019607843137,342.0 L 331.0019607843137,341.0 L 331.0,340.9980392156863 L 330.0019607843137,340.0 L 330.0,339.9980392156863 L 329.0019607843137,339.0 L 329.0019607843137,338.0 L 329.0,337.9980392156863 L 328.0019607843137,337.0 L 328.0019607843137,336.0 L 328.0,335.9980392156863 L 327.0019607843137,335.0 L 327.0019607843137,334.0 L 328.0,333.0019607843137 L 329.0,333.0019607843137 L 329.0019607843137,333.0 L 330.0,332.0019607843137 L 331.0,332.0019607843137 L 331.0019607843137,332.0 L 331.0019607843137,331.0 L 332.0,330.0019607843137 L 332.0019607843137,330.0 L 333.0,329.0019607843137 L 333.0019607843137,329.0 L 333.0019607843137,328.0 L 333.0019607843137,327.0 L 333.0019607843137,326.0 L 333.0019607843137,325.0 L 333.0019607843137,324.0 L 333.0019607843137,323.0 L 333.0019607843137,322.0 L 333.0019607843137,321.0 L 333.0,320.9980392156863 L 332.0019607843137,320.0 L 332.0,319.9980392156863 L 331.0019607843137,319.0 L 331.0,318.9980392156863 L 330.0019607843137,318.0 L 330.0,317.9980392156863 L 329.0019607843137,317.0 L 329.0,316.9980392156863 L 328.0,316.9980392156863 L 327.0019607843137,316.0 L 327.0,315.9980392156863 L 326.0,315.9980392156863 L 325.0,315.9980392156863 L 324.0,315.9980392156863 L 323.0,315.9980392156863 L 322.0,315.9980392156863 L 321.0,315.9980392156863 L 320.0,315.9980392156863 L 319.0,315.9980392156863 L 318.0,315.9980392156863 L 317.0,315.9980392156863 L 316.0,315.9980392156863 L 315.0,315.9980392156863 L 314.0,315.9980392156863 L 313.0,315.9980392156863 L 312.0,315.9980392156863 L 311.0,315.9980392156863 L 310.0,315.9980392156863 L 309.9980392156863,316.0 L 309.9980392156863,317.0 L 309.9980392156863,318.0 L 309.9980392156863,319.0 L 309.9980392156863,320.0 L 309.9980392156863,321.0 L 309.9980392156863,322.0 L 309.9980392156863,323.0 L 309.9980392156863,324.0 L 309.9980392156863,325.0 L 309.9980392156863,326.0 L 309.9980392156863,327.0 L 309.9980392156863,328.0 L 309.9980392156863,329.0 L 309.9980392156863,330.0 L 309.9980392156863,331.0 L 309.9980392156863,332.0 L 309.9980392156863,333.0 L 309.9980392156863,334.0 L 309.9980392156863,335.0 L 309.9980392156863,336.0 L 309.9980392156863,337.0 L 309.9980392156863,338.0 L 309.9980392156863,339.0 L 309.9980392156863,340.0 L 309.9980392156863,341.0 L 309.9980392156863,342.0 L 309.9980392156863,343.0 L 309.9980392156863,344.0 L 309.9980392156863,345.0 L 309.9980392156863,346.0 L 310.0,346.0019607843137 L 311.0,346.0019607843137 L 312.0,346.0019607843137 L 313.0,346.0019607843137 L 314.0,346.0019607843137 L 315.0,346.0019607843137 L 316.0,346.0019607843137 L 317.0,346.0019607843137 L 317.0019607843137,346.0 L 317.0019607843137,345.0 L 317.0019607843137,344.0 L 317.0019607843137,343.0 L 317.0019607843137,342.0 L 317.0019607843137,341.0 L 317.0019607843137,340.0 L 317.0019607843137,339.0 L 317.0019607843137,338.0 L 317.0019607843137,337.0 L 317.0019607843137,336.0 L 317.0019607843137,335.0 L 318.0,334.0019607843137 L 319.0,334.0019607843137 L 319.9980392156863,335.0 L 319.9980392156863,336.0 L 320.0,336.0019607843137 L 320.9980392156863,337.0 L 320.9980392156863,338.0 L 321.0,338.0019607843137 L 321.9980392156863,339.0 L 321.9980392156863,340.0 L 322.0,340.0019607843137 L 322.9980392156863,341.0 L 323.0,341.0019607843137 L 323.9980392156863,342.0 L 323.9980392156863,343.0 L 324.0,343.0019607843137 L 324.9980392156863,344.0 L 324.9980392156863,345.0 L 325.0,345.0019607843137 L 325.9980392156863,346.0 L 326.0,346.0019607843137 L 327.0,346.0019607843137 L 328.0,346.0019607843137 L 329.0,346.0019607843137 L 330.0,346.0019607843137 L 331.0,346.0019607843137 L 332.0,346.0019607843137 L 333.0,346.0019607843137 L 333.0019607843137,346.0 Z" fill="white" stroke="black" stroke-width="2" /><path d="M 384.0019607843137,346.0 L 384.0019607843137,345.0 L 384.0019607843137,344.0 L 384.0019607843137,343.0 L 384.0019607843137,342.0 L 384.0019607843137,341.0 L 384.0,340.9980392156863 L 383.0,340.9980392156863 L 382.0,340.9980392156863 L 381.0,340.9980392156863 L 380.0,340.9980392156863 L 379.0,340.9980392156863 L 378.0,340.9980392156863 L 377.0,340.9980392156863 L 376.0,340.9980392156863 L 375.0,340.9980392156863 L 374.0,340.9980392156863 L 373.0019607843137,340.0 L 373.0019607843137,339.0 L 373.0019607843137,338.0 L 373.0019607843137,337.0 L 373.0019607843137,336.0 L 373.0019607843137,335.0 L 373.0019607843137,334.0 L 374.0,333.0019607843137 L 375.0,333.0019607843137 L 376.0,333.0019607843137 L 377.0,333.0019607843137 L 378.0,333.0019607843137 L 379.0,333.0019607843137 L 380.0,333.0019607843137 L 381.0,333.0019607843137 L 382.0,333.0019607843137 L 383.0,333.0019607843137 L 383.0019607843137,333.0 L 383.0019607843137,332.0 L 383.0019607843137,331.0 L 383.0019607843137,330.0 L 383.0019607843137,329.0 L 383.0019607843137,328.0 L 383.0,327.9980392156863 L 382.0,327.9980392156863 L 381.0,327.9980392156863 L 380.0,327.9980392156863 L 379.0,327.9980392156863 L 378.0,327.9980392156863 L 377.0,327.9980392156863 L 376.0,327.9980392156863 L 375.0,327.9980392156863 L 374.0,327.9980392156863 L 373.0019607843137,327.0 L 373.0019607843137,326.0 L 373.0019607843137,325.0 L 373.0019607843137,324.0 L 373.0019607843137,323.0 L 373.0019607843137,322.0 L 374.0,321.0019607843137 L 375.0,321.0019607843137 L 376.0,321.0019607843137 L 377.0,321.0019607843137 L 378.0,321.0019607843137 L 379.0,321.0019607843137 L 380.0,321.0019607843137 L 381.0,321.0019607843137 L 382.0,321.0019607843137 L 383.0,321.0019607843137 L 384.0,321.0019607843137 L 384.0019607843137,321.0 L 384.0019607843137,320.0 L 384.0019607843137,319.0 L 384.0019607843137,318.0 L 384.0019607843137,317.0 L 384.0019607843137,316.0 L 384.0,315.9980392156863 L 383.0,315.9980392156863 L 382.0,315.9980392156863 L 381.0,315.9980392156863 L 380.0,315.9980392156863 L 379.0,315.9980392156863 L 378.0,315.9980392156863 L 377.0,315.9980392156863 L 376.0,315.9980392156863 L 375.0,315.9980392156863 L 374.0,315.9980392156863 L 373.0,315.9980392156863 L 372.0,315.9980392156863 L 371.0,315.9980392156863 L 370.0,315.9980392156863 L 369.0,315.9980392156863 L 368.0,315.9980392156863 L 367.0,315.9980392156863 L 366.0,315.9980392156863 L 365.9980392156863,316.0 L 365.9980392156863,317.0 L 365.9980392156863,318.0 L 365.9980392156863,319.0 L 365.9980392156863,320.0 L 365.9980392156863,321.0 L 365.9980392156863,322.0 L 365.9980392156863,323.0 L 365.9980392156863,324.0 L 365.9980392156863,325.0 L 365.9980392156863,326.0 L 365.9980392156863,327.0 L 365.9980392156863,328.0 L 365.9980392156863,329.0 L 365.9980392156863,330.0 L 365.9980392156863,331.0 L 365.9980392156863,332.0 L 365.9980392156863,333.0 L 365.9980392156863,334.0 L 365.9980392156863,335.0 L 365.9980392156863,336.0 L 365.9980392156863,337.0 L 365.9980392156863,338.0 L 365.9980392156863,339.0 L 365.9980392156863,340.0 L 365.9980392156863,341.0 L 365.9980392156863,342.0 L 365.9980392156863,343.0 L 365.9980392156863,344.0 L 365.9980392156863,345.0 L 365.9980392156863,346.0 L 366.0,346.0019607843137 L 367.0,346.0019607843137 L 368.0,346.0019607843137 L 369.0,346.0019607843137 L 370.0,346.0019607843137 L 371.0,346.0019607843137 L 372.0,346.0019607843137 L 373.0,346.0019607843137 L 374.0,346.0019607843137 L 375.0,346.0019607843137 L 376.0,346.0019607843137 L 377.0,346.0019607843137 L 378.0,346.0019607843137 L 379.0,346.0019607843137 L 380.0,346.0019607843137 L 381.0,346.0019607843137 L 382.0,346.0019607843137 L 383.0,346.0019607843137 L 384.0,346.0019607843137 L 384.0019607843137,346.0 Z" fill="white" stroke="black" stroke-width="2" /><path d="M 323.0,329.9980392156863 L 322.0,329.9980392156863 L 321.0,329.9980392156863 L 320.0,329.9980392156863 L 319.0,329.9980392156863 L 318.0,329.9980392156863 L 317.0019607843137,329.0 L 317.0019607843137,328.0 L 317.0019607843137,327.0 L 317.0019607843137,326.0 L 317.0019607843137,325.0 L 317.0019607843137,324.0 L 317.0019607843137,323.0 L 317.0019607843137,322.0 L 318.0,321.0019607843137 L 319.0,321.0019607843137 L 320.0,321.0019607843137 L 321.0,321.0019607843137 L 322.0,321.0019607843137 L 323.0,321.0019607843137 L 323.9980392156863,322.0 L 324.0,322.0019607843137 L 325.0,322.0019607843137 L 325.9980392156863,323.0 L 325.9980392156863,324.0 L 326.0,324.0019607843137 L 326.9980392156863,325.0 L 326.9980392156863,326.0 L 326.0,326.9980392156863 L 325.9980392156863,327.0 L 325.9980392156863,328.0 L 325.0,328.9980392156863 L 324.0,328.9980392156863 L 323.9980392156863,329.0 L 323.0,329.9980392156863 Z" fill="white" stroke="black" stroke-width="2" /><path d="M 172.0,335.9980392156863 L 171.0,335.9980392156863 L 170.0,335.9980392156863 L 169.0,335.9980392156863 L 168.0,335.9980392156863 L 167.0,335.9980392156863 L 166.0,335.9980392156863 L 165.00196078431372,335.0 L 165.00196078431372,334.0 L 166.0,333.0019607843137 L 166.00196078431372,333.0 L 166.00196078431372,332.0 L 166.00196078431372,331.0 L 167.0,330.0019607843137 L 167.00196078431372,330.0 L 167.00196078431372,329.0 L 167.00196078431372,328.0 L 168.0,327.0019607843137 L 168.00196078431372,327.0 L 168.00196078431372,326.0 L 168.00196078431372,325.0 L 169.0,324.0019607843137 L 169.99803921568628,325.0 L 169.99803921568628,326.0 L 170.0,326.0019607843137 L 170.99803921568628,327.0 L 170.99803921568628,328.0 L 170.99803921568628,329.0 L 171.0,329.0019607843137 L 171.99803921568628,330.0 L 171.99803921568628,331.0 L 171.99803921568628,332.0 L 172.0,332.0019607843137 L 172.99803921568628,333.0 L 172.99803921568628,334.0 L 172.99803921568628,335.0 L 172.0,335.9980392156863 Z" fill="white" stroke="black" stroke-width="2" /></svg>